<?xml version="1.0" standalone="no"?>
<!DOCTYPE svg PUBLIC "-//W3C//DTD SVG 20010904//EN"
 "http://www.w3.org/TR/2001/REC-SVG-20010904/DTD/svg10.dtd">
<svg version="1.0" xmlns="http://www.w3.org/2000/svg"
 width="500.000000pt" height="500.000000pt" viewBox="0 0 500.000000 500.000000"
 preserveAspectRatio="xMidYMid meet">
<metadata>
Created by potrace 1.14, written by Peter Selinger 2001-2017
</metadata>
<g transform="translate(0.000000,500.000000) scale(0.100000,-0.100000)"
fill="#000000" stroke="none">
<path d="M322 2500 l0 -2178 2178 0 2179 0 -1 2178 0 2178 -2178 0 -2178 0 0
-2178z m1428 1429 l0 -679 -679 0 -678 0 0 679 0 678 678 0 679 0 0 -678z
m1429 0 l1 -679 -680 0 -679 0 0 678 0 679 679 0 679 0 0 -678z m1428 0 l1
-679 -679 0 -679 0 0 679 0 678 679 0 678 0 0 -678z m-2857 -1430 l0 -678
-679 0 -678 -1 0 680 0 679 678 0 679 -1 0 -679z m1429 0 l0 -679 -679 0 -679
1 0 679 0 679 679 0 680 0 -1 -680z m1427 -1 l2 -677 -679 0 -679 0 0 678 0
679 678 -1 677 -2 1 -677z m-2856 -1427 l0 -678 -679 0 -678 -1 0 679 0 679
678 0 679 0 0 -679z m1429 0 l1 -678 -679 0 -679 0 0 678 -1 679 679 0 679 0
0 -679z m1427 2 l-1 -678 -677 -1 -678 -2 0 679 0 679 679 0 679 0 -2 -677z"/>
<path d="M2362 4499 c-110 -28 -237 -100 -292 -166 -104 -123 -148 -232 -155
-378 -15 -331 238 -603 570 -614 158 -4 311 56 426 169 113 111 168 237 174
395 6 145 -31 265 -118 380 -138 184 -383 271 -605 214z"/>
<path d="M3782 3070 c-105 -29 -190 -78 -267 -155 -115 -115 -173 -254 -173
-415 0 -161 58 -300 173 -415 120 -120 267 -178 435 -171 159 7 289 65 401
179 57 58 130 183 145 247 69 299 -61 575 -327 698 -111 51 -270 64 -387 32z"/>
<path d="M925 1641 c-89 -26 -131 -46 -199 -95 -122 -87 -199 -206 -229 -355
-56 -268 78 -536 325 -651 282 -132 616 -23 766 250 50 90 65 154 66 270 1 70
-4 135 -13 165 -52 186 -211 351 -398 411 -73 24 -245 26 -318 5z"/>
<path d="M2340 1636 c-269 -79 -437 -311 -426 -591 5 -146 64 -281 167 -385
71 -72 184 -139 259 -155 8 -2 33 -8 55 -13 22 -5 76 -8 120 -7 515 12 764
633 401 999 -154 154 -372 212 -576 152z"/>
<path d="M3782 1640 c-193 -51 -336 -183 -410 -378 -22 -58 -26 -84 -26 -187
-1 -146 20 -217 98 -333 116 -173 309 -268 519 -256 301 16 542 263 552 563
12 396 -353 690 -733 591z"/>
</g>
</svg>
